<?xml version='1.0' encoding='UTF-8' standalone='no'?>
<!-- Created with Fritzing (http://www.fritzing.org/) -->
<svg xmlns:svg='http://www.w3.org/2000/svg' xmlns='http://www.w3.org/2000/svg' version='1.2' baseProfile='tiny' x='0in' y='0in' width='4.13497in' height='2.76897in' viewBox='0 0 297.718 199.366' >
<path stroke='#8c8c8c' stroke-width='2.15136' stroke-linecap='round' stroke-linejoin='round' fill='none' d='M239.312,158.852L239.312,183.468' />
<path stroke='#8c8c8c' stroke-width='2.15136' stroke-linecap='round' stroke-linejoin='round' fill='none' d='M246.514,158.852L246.514,183.468' />
<g partID='72610'><g transform='translate(234.785,129.645)' ><g xmlns="http://www.w3.org/2000/svg" id="breadboard">
 <rect xmlns="http://www.w3.org/2000/svg" width="2.15208" x="3.45096" y="25.421" fill="none" height="0.72" id="connector0pin"/>
 <rect xmlns="http://www.w3.org/2000/svg" width="2.15424" x="10.651" y="25.421" fill="none" height="0.72" id="connector1pin"/>
 <g xmlns="http://www.w3.org/2000/svg" fill="none" stroke="#8C8C8C" id="connector0leg" stroke-linecap="round" y1="40.565" x1="6.287" y2="74.754" stroke-width="2.15136" x2="6.287"/>
 <g xmlns="http://www.w3.org/2000/svg" fill="none" stroke="#8C8C8C" id="connector1leg" stroke-linecap="round" y1="40.565" x1="16.29" y2="74.754" stroke-width="2.15136" x2="16.29"/>
 <rect xmlns="http://www.w3.org/2000/svg" width="2.15136" x="3.45096" y="19.3795" fill="#8C8C8C" height="9.82728"/>
 <path xmlns="http://www.w3.org/2000/svg" fill="#8C8C8C" d="M12.8045,29.2068c0,-1.1736,-1.06488,-2.1024,-2.088,-2.9916c-0.41616,-0.3672,-1.19952,-1.00152,-1.19952,-1.42488l0,-5.47056l-2.16144,0l0,5.78016c0,1.0584,0.94752,1.87848,1.94616,2.74824c0.44424,0.37584,1.34856,1.24992,1.34856,1.76976"/>
 <g xmlns="http://www.w3.org/2000/svg" id="g12">
  <path xmlns="http://www.w3.org/2000/svg" opacity="0.3" fill="#e60000" id="color_path14" d="M14.1732,13.001L14.1732,7.0884C14.1732,3.1752,11.0052,0,7.08768,0C3.1752,0,0,3.16944,0,7.0884l0,13.649c1.47384,1.65096,4.0968,2.75256,7.08768,2.75256c4.61952,0,8.36856,-2.61792,8.36856,-5.85936l0,-1.52352C15.4555,14.9645,14.9818,13.9032,14.1732,13.001z"/>
  <path xmlns="http://www.w3.org/2000/svg" opacity="0.5" fill="#E6E6E6" id="path16" d="M14.1732,13.001L14.1732,7.0884C14.1732,3.1752,11.0052,0,7.08768,0C3.1752,0,0,3.16944,0,7.0884l0,13.649c1.47384,1.65096,4.0968,2.75256,7.08768,2.75256c4.61952,0,8.36856,-2.61792,8.36856,-5.85936l0,-1.52352C15.4555,14.9645,14.9818,13.9032,14.1732,13.001z"/>
  <path xmlns="http://www.w3.org/2000/svg" opacity="0.9" fill="#D1D1D1" id="path18" d="M14.1732,13.001l0,3.10536c0,2.73888,-3.16584,4.96512,-7.08552,4.96512C3.1752,21.0715,0,18.8525,0,16.1064l0,3.10536L0,20.736c1.47384,1.65168,4.0968,2.75256,7.08768,2.75256c4.61952,0,8.36856,-2.61792,8.36856,-5.85864L15.4562,16.1064C15.4555,14.9645,14.9818,13.9032,14.1732,13.001z"/>
  <path xmlns="http://www.w3.org/2000/svg" opacity="0.7" fill="#e60000" id="color_path20" d="M14.1732,13.001l0,3.10536c0,2.73888,-3.16584,4.96512,-7.08552,4.96512C3.1752,21.0715,0,18.8525,0,16.1064l0,3.10536L0,20.736c1.47384,1.65168,4.0968,2.75256,7.08768,2.75256c4.61952,0,8.36856,-2.61792,8.36856,-5.85864L15.4562,16.1064C15.4555,14.9645,14.9818,13.9032,14.1732,13.001z"/>
  <path xmlns="http://www.w3.org/2000/svg" opacity="0.25" fill="#e60000" id="color_path22" d="M14.1732,13.001l0,3.10536c0,2.73888,-3.16584,4.96512,-7.08552,4.96512C3.1752,21.0715,0,18.8525,0,16.1064l0,3.10536c1.47384,1.65024,4.0968,2.75256,7.08768,2.75256c4.61952,0,8.36856,-2.61792,8.36856,-5.85864C15.4555,14.9645,14.9818,13.9032,14.1732,13.001z"/>
  <ellipse xmlns="http://www.w3.org/2000/svg" opacity="0.25" fill="#E6E6E6" cx="7.08768" cy="16.1064" rx="7.08696" ry="4.9608" id="ellipse24"/>
  <ellipse xmlns="http://www.w3.org/2000/svg" opacity="0.25" fill="#e60000" cx="7.08768" cy="16.1064" rx="7.08696" ry="4.9608" id="color_ellipse26"/>
  <polygon xmlns="http://www.w3.org/2000/svg" fill="#666666" points="2.2032,9.648,2.2032,16.1071,3.19608,16.1071,3.19608,13.0946,6.0156,13.0946,10.0123,8.80488,3.40704,8.80488" id="polygon28"/>
  <polygon xmlns="http://www.w3.org/2000/svg" fill="#666666" points="10.7784,8.52408,11.2147,9.03384,7.41168,13.0946,11.0599,13.0946,11.0599,16.1071,11.9736,16.1071,11.9736,8.52408" id="polygon30"/>
  <path xmlns="http://www.w3.org/2000/svg" opacity="0.65" fill="#e60000" id="color_path32" d="M14.1732,13.001L14.1732,7.0884C14.1732,3.1752,11.0052,0,7.08768,0C3.1752,0,0,3.16944,0,7.0884l0,13.649c1.47384,1.65096,4.0968,2.75256,7.08768,2.75256c4.61952,0,8.36856,-2.61792,8.36856,-5.85936l0,-1.52352C15.4555,14.9645,14.9818,13.9032,14.1732,13.001z"/>
  <path xmlns="http://www.w3.org/2000/svg" opacity="0.5" fill="#FFFFFF" id="path34" d="M10.3882,3.75408l1.4364,-0.2736c-0.84168,-1.13184,-2.08224,-1.95768,-3.54168,-2.23848l0.25416,1.08072C9.30096,2.59344,9.94392,3.1032,10.3882,3.75408z"/>
  <path xmlns="http://www.w3.org/2000/svg" opacity="0.5" fill="#FFFFFF" id="path36" d="M0.76824,19.926l0,1.51992c0.64872,0.5292,1.43352,0.97632,2.3076,1.31688l0,-1.52496C2.19744,20.9016,1.41912,20.4559,0.76824,19.926z"/>
  <path xmlns="http://www.w3.org/2000/svg" opacity="0.5" fill="#FFFFFF" id="path38" d="M11.0729,20.2097c-0.2556,0.1224,-0.52992,0.22968,-0.80568,0.32976c-0.05832,0.01944,-0.11736,0.04032,-0.17784,0.05832c-0.56376,0.17928,-1.16136,0.31896,-1.79496,0.39456c-0.07488,0.00936,-0.1512,0.01872,-0.22464,0.01944c-0.3204,0.03024,-0.64368,0.05832,-0.97056,0.05832c-0.14832,0,-0.30744,-0.01512,-0.4716,-0.02376c-1.20024,-0.05688,-2.33064,-0.31464,-3.2976,-0.73944L3.33,11.9174L3.33,7.092c0,-1.47096,0.84816,-2.72952,2.0736,-3.34944L5.38128,3.68928l-1.24776,-1.512c-1.66968,1.00296,-2.79,2.8224,-2.79,4.91184l0,11.9052c-0.04968,-0.04968,-0.30816,-0.30888,-0.48024,-0.52992l-0.30744,0.6876c1.40112,1.48176,3.8088,2.46168,6.54264,2.46168c1.67976,0,3.23712,-0.37368,4.51152,-1.00224l-0.52704,-0.40896C11.0729,20.2097,11.0729,20.2097,11.0729,20.2097z"/>
 </g>
</g>
</g></g><g partID='72660'><g transform='translate(54.2821,0)' ><g xmlns="http://www.w3.org/2000/svg" id="breadboard">
 <g xmlns="http://www.w3.org/2000/svg" id="svg">
  <g xmlns="http://www.w3.org/2000/svg" id="breadboard">
   <path xmlns="http://www.w3.org/2000/svg" fill="#1F7A34" d="M0,0l0,102.047l226.772,0L226.772,0L0,0zM113.029,2.081c0.766,0,1.387,0.621,1.387,1.387s-0.621,1.387,-1.387,1.387s-1.387,-0.621,-1.387,-1.387S112.264,2.081,113.029,2.081zM41.03,2.081c0.766,0,1.387,0.621,1.387,1.387s-0.621,1.387,-1.387,1.387s-1.387,-0.621,-1.387,-1.387S40.265,2.081,41.03,2.081zM33.83,2.081c0.766,0,1.387,0.621,1.387,1.387s-0.621,1.387,-1.387,1.387s-1.387,-0.621,-1.387,-1.387S33.064,2.081,33.83,2.081zM6.542,3.736c1.576,0,2.854,1.277,2.854,2.854S8.118,9.443,6.542,9.443S3.688,8.166,3.688,6.59S4.966,3.736,6.542,3.736zM6.545,98.339c-1.576,0,-2.854,-1.278,-2.854,-2.854c0,-1.576,1.278,-2.854,2.854,-2.854s2.854,1.277,2.854,2.854C9.398,97.061,8.121,98.339,6.545,98.339zM19.43,4.854c-0.766,0,-1.387,-0.621,-1.387,-1.387s0.621,-1.387,1.387,-1.387s1.387,0.621,1.387,1.387S20.195,4.854,19.43,4.854zM25.243,3.468c0,-0.766,0.621,-1.387,1.387,-1.387s1.387,0.621,1.387,1.387s-0.621,1.387,-1.387,1.387S25.243,4.233,25.243,3.468zM43.219,89.84L26.886,89.84l0,-4.816l16.333,0L43.219,89.84zM43.219,17.023L26.886,17.023l0,-4.816l16.333,0L43.219,17.023zM48.229,4.854c-0.766,0,-1.387,-0.621,-1.387,-1.387s0.621,-1.387,1.387,-1.387s1.387,0.621,1.387,1.387S48.995,4.854,48.229,4.854zM55.43,4.854c-0.766,0,-1.387,-0.621,-1.387,-1.387s0.621,-1.387,1.387,-1.387s1.387,0.621,1.387,1.387S56.195,4.854,55.43,4.854zM62.63,4.854c-0.766,0,-1.387,-0.621,-1.387,-1.387s0.621,-1.387,1.387,-1.387s1.387,0.621,1.387,1.387S63.396,4.854,62.63,4.854zM69.83,4.854c-0.766,0,-1.387,-0.621,-1.387,-1.387s0.621,-1.387,1.387,-1.387s1.387,0.621,1.387,1.387S70.596,4.854,69.83,4.854zM77.029,4.854c-0.766,0,-1.387,-0.621,-1.387,-1.387s0.621,-1.387,1.387,-1.387s1.387,0.621,1.387,1.387S77.795,4.854,77.029,4.854zM84.229,4.854c-0.766,0,-1.387,-0.621,-1.387,-1.387s0.621,-1.387,1.387,-1.387s1.387,0.621,1.387,1.387S84.995,4.854,84.229,4.854zM91.43,4.854c-0.766,0,-1.387,-0.621,-1.387,-1.387s0.621,-1.387,1.387,-1.387s1.387,0.621,1.387,1.387S92.195,4.854,91.43,4.854zM98.63,4.854c-0.766,0,-1.387,-0.621,-1.387,-1.387s0.621,-1.387,1.387,-1.387s1.387,0.621,1.387,1.387S99.396,4.854,98.63,4.854zM104.442,3.468c0,-0.766,0.621,-1.387,1.387,-1.387s1.387,0.621,1.387,1.387s-0.621,1.387,-1.387,1.387S104.442,4.233,104.442,3.468zM121.553,89.84l-16.334,0l0,-4.816l16.334,0L121.553,89.84zM121.553,17.023l-16.334,0l0,-4.816l16.334,0L121.553,17.023zM120.229,4.854c-0.766,0,-1.387,-0.621,-1.387,-1.387s0.621,-1.387,1.387,-1.387s1.387,0.621,1.387,1.387S120.995,4.854,120.229,4.854zM127.43,4.854c-0.766,0,-1.387,-0.621,-1.387,-1.387s0.621,-1.387,1.387,-1.387s1.387,0.621,1.387,1.387S128.196,4.854,127.43,4.854zM199.885,89.84l-16.332,0l0,-4.816l16.332,0L199.885,89.84zM199.885,17.023l-16.332,0l0,-4.816l16.332,0L199.885,17.023zM220.208,3.731c1.576,0,2.854,1.277,2.854,2.854s-1.277,2.854,-2.854,2.854s-2.855,-1.277,-2.855,-2.854S218.631,3.731,220.208,3.731zM220.208,98.34c-1.576,0,-2.854,-1.277,-2.854,-2.854c0,-1.575,1.277,-2.854,2.854,-2.854s2.855,1.278,2.855,2.854C223.063,97.062,221.784,98.34,220.208,98.34z"/>
   <g xmlns="http://www.w3.org/2000/svg">
    <path xmlns="http://www.w3.org/2000/svg" fill="#9A916C" d="M1.581,6.59c0,2.737,2.223,4.961,4.96,4.961c2.742,0,4.961,-2.224,4.961,-4.961c0,-2.741,-2.219,-4.96,-4.961,-4.96C3.804,1.63,1.581,3.849,1.581,6.59zM3.688,6.59c0,-1.576,1.278,-2.854,2.854,-2.854c1.576,0,2.854,1.277,2.854,2.854S8.117,9.443,6.541,9.443C4.966,9.443,3.688,8.166,3.688,6.59z"/>
   </g>
   <g xmlns="http://www.w3.org/2000/svg">
    <g xmlns="http://www.w3.org/2000/svg">
     <path xmlns="http://www.w3.org/2000/svg" fill="#9A916C" d="M225.168,95.486c0,-2.737,-2.223,-4.961,-4.961,-4.961c-2.742,0,-4.961,2.224,-4.961,4.961c0,2.741,2.219,4.96,4.961,4.96C222.946,100.446,225.168,98.228,225.168,95.486zM223.063,95.486c0,1.576,-1.279,2.854,-2.855,2.854s-2.854,-1.277,-2.854,-2.854c0,-1.575,1.277,-2.854,2.854,-2.854S223.063,93.911,223.063,95.486z"/>
    </g>
   </g>
   <g xmlns="http://www.w3.org/2000/svg">
    <g xmlns="http://www.w3.org/2000/svg">
     <path xmlns="http://www.w3.org/2000/svg" fill="#9A916C" d="M1.584,95.485c0,2.737,2.223,4.961,4.96,4.961c2.742,0,4.961,-2.224,4.961,-4.961c0,-2.741,-2.219,-4.96,-4.961,-4.96C3.807,90.525,1.584,92.744,1.584,95.485zM3.69,95.485c0,-1.576,1.278,-2.854,2.854,-2.854c1.576,0,2.854,1.277,2.854,2.854c0,1.575,-1.278,2.854,-2.854,2.854C4.969,98.339,3.69,97.061,3.69,95.485z"/>
    </g>
   </g>
   <path xmlns="http://www.w3.org/2000/svg" fill="#303030" d="M217.563,65.272c-0.734,0,-1.336,-0.602,-1.336,-1.337L216.227,38.113c0,-0.735,0.602,-1.337,1.336,-1.337l0.057,0L217.62,16.726l0,-0.698l-0.699,0l-2.049,-2.049l0,-0.713l-0.713,0L12.611,13.266l-0.713,0l0,0.713L9.85,16.027L9.151,16.027l0,0.698l0,20.051l0.057,0c0.735,0,1.337,0.602,1.337,1.337l0,25.822c0,0.735,-0.602,1.337,-1.337,1.337L9.151,65.272l0,20.049l0,0.698L9.85,86.019l2.049,2.049l0,0.713l0.713,0l201.547,0l0.713,0l0,-0.713l2.049,-2.049l0.699,0l0,-0.698L217.62,65.272L217.563,65.272z"/>
   <g xmlns="http://www.w3.org/2000/svg">
    <path xmlns="http://www.w3.org/2000/svg" fill="#87AD34" d="M208.663,71.382c0,2.206,-1.805,4.011,-4.012,4.011L22.12,75.393c-2.206,0,-4.011,-1.805,-4.011,-4.011L18.109,30.665c0,-2.206,1.805,-4.011,4.011,-4.011l182.531,0c2.207,0,4.012,1.805,4.012,4.011L208.663,71.382z"/>
    <g xmlns="http://www.w3.org/2000/svg" opacity="0.2">
     <path xmlns="http://www.w3.org/2000/svg" fill="#22420D" d="M208.655,30.646l0,40.755c0,-0.006,0.002,-0.012,0.002,-0.019L208.657,30.665C208.657,30.658,208.655,30.652,208.655,30.646zM22.12,26.654c-2.205,0,-4.011,1.806,-4.011,4.011l0,40.717c0,2.205,1.806,4.011,4.011,4.011l2.326,0c-2.206,0,-4.011,-1.806,-4.011,-4.011L20.435,32.003c0,-2.206,1.805,-4.011,4.011,-4.011l183.165,0c-0.735,-0.814,-1.787,-1.338,-2.964,-1.338L22.12,26.654z"/>
    </g>
   </g>
   <g xmlns="http://www.w3.org/2000/svg">
    <path xmlns="http://www.w3.org/2000/svg" fill="#1A1A1A" d="M210.358,18.618c0,-0.735,-0.602,-1.336,-1.336,-1.336L17.75,17.282c-0.735,0,-1.336,0.602,-1.336,1.336l0,0.737c0,0.735,0.602,1.336,1.336,1.336l191.271,0c0.734,0,1.336,-0.602,1.336,-1.336L210.357,18.618z"/>
    <path xmlns="http://www.w3.org/2000/svg" fill="#424242" d="M209.69,19.812c0,-0.484,-0.432,-0.88,-0.957,-0.88L18.117,18.932c-0.526,0,-0.957,0.396,-0.957,0.88s0.431,0.88,0.957,0.88l190.616,0C209.258,20.691,209.69,20.295,209.69,19.812z"/>
   </g>
   <g xmlns="http://www.w3.org/2000/svg">
    <path xmlns="http://www.w3.org/2000/svg" fill="#1A1A1A" d="M210.358,82.056c0,-0.734,-0.602,-1.336,-1.336,-1.336L17.75,80.72c-0.735,0,-1.336,0.602,-1.336,1.336l0,0.738c0,0.734,0.602,1.336,1.336,1.336l191.271,0c0.734,0,1.336,-0.602,1.336,-1.336L210.357,82.056z"/>
    <path xmlns="http://www.w3.org/2000/svg" fill="#424242" d="M209.69,83.251c0,-0.484,-0.432,-0.88,-0.957,-0.88L18.117,82.371c-0.526,0,-0.957,0.396,-0.957,0.88c0,0.483,0.431,0.879,0.957,0.879l190.616,0C209.258,84.13,209.69,83.734,209.69,83.251z"/>
   </g>
   <g xmlns="http://www.w3.org/2000/svg">
    <line xmlns="http://www.w3.org/2000/svg" stroke-opacity="0.2" fill="none" stroke="#F2F2F2" stroke-linecap="round" y1="16.173" stroke-width="0.2358" x1="9.937" y2="14.06" x2="12.05"/>
    <line xmlns="http://www.w3.org/2000/svg" stroke-opacity="0.2" fill="none" stroke="#F2F2F2" stroke-linecap="round" y1="87.977" stroke-width="0.2358" x1="12.072" y2="85.863" x2="9.959"/>
   </g>
   <g xmlns="http://www.w3.org/2000/svg">
    <line xmlns="http://www.w3.org/2000/svg" stroke-opacity="0.2" fill="none" stroke="#F2F2F2" stroke-linecap="round" y1="16.173" stroke-width="0.2358" x1="216.823" y2="14.06" x2="214.709"/>
    <line xmlns="http://www.w3.org/2000/svg" stroke-opacity="0.2" fill="none" stroke="#F2F2F2" stroke-linecap="round" y1="87.977" stroke-width="0.2358" x1="214.688" y2="85.863" x2="216.801"/>
   </g>
   <path xmlns="http://www.w3.org/2000/svg" stroke-opacity="0.4" fill="none" stroke="#1A1A1A" stroke-width="1.415" d="M208.657,71.382c0,2.205,-1.805,4.011,-4.01,4.011L22.12,75.393c-2.205,0,-4.011,-1.806,-4.011,-4.011L18.109,30.665c0,-2.205,1.806,-4.011,4.011,-4.011l182.527,0c2.205,0,4.01,1.806,4.01,4.011L208.657,71.382z"/>
   <g xmlns="http://www.w3.org/2000/svg">
    <path xmlns="http://www.w3.org/2000/svg" fill="#9A916C" d="M215.247,6.585c0,2.737,2.223,4.961,4.961,4.961c2.742,0,4.961,-2.224,4.961,-4.961c0,-2.741,-2.219,-4.96,-4.961,-4.96C217.469,1.625,215.247,3.844,215.247,6.585zM217.352,6.585c0,-1.576,1.279,-2.854,2.855,-2.854s2.854,1.277,2.854,2.854s-1.277,2.854,-2.854,2.854S217.352,8.161,217.352,6.585z"/>
   </g>
   <g xmlns="http://www.w3.org/2000/svg">
    <path xmlns="http://www.w3.org/2000/svg" fill="#9A916C" d="M17.02,0l0,4.75c0,1.33,1.078,2.41,2.41,2.41c1.33,0,2.41,-1.08,2.41,-2.41L21.84,0L17.02,0zM19.43,4.854c-0.766,0,-1.387,-0.621,-1.387,-1.387s0.621,-1.387,1.387,-1.387s1.387,0.621,1.387,1.387S20.195,4.854,19.43,4.854z"/>
   </g>
   <g xmlns="http://www.w3.org/2000/svg">
    <path xmlns="http://www.w3.org/2000/svg" fill="#9A916C" d="M24.22,0l0,4.75c0,1.33,1.078,2.41,2.41,2.41c1.33,0,2.41,-1.08,2.41,-2.41L29.04,0L24.22,0zM26.63,4.854c-0.766,0,-1.387,-0.621,-1.387,-1.387s0.621,-1.387,1.387,-1.387s1.387,0.621,1.387,1.387S27.396,4.854,26.63,4.854z"/>
   </g>
   <g xmlns="http://www.w3.org/2000/svg">
    <path xmlns="http://www.w3.org/2000/svg" fill="#9A916C" d="M31.42,0l0,4.75c0,1.33,1.078,2.41,2.41,2.41c1.33,0,2.41,-1.08,2.41,-2.41L36.24,0L31.42,0zM33.83,4.854c-0.766,0,-1.387,-0.621,-1.387,-1.387s0.621,-1.387,1.387,-1.387s1.387,0.621,1.387,1.387S34.596,4.854,33.83,4.854z"/>
   </g>
   <g xmlns="http://www.w3.org/2000/svg">
    <path xmlns="http://www.w3.org/2000/svg" fill="#9A916C" d="M38.62,0l0,4.75c0,1.33,1.078,2.41,2.41,2.41c1.33,0,2.41,-1.08,2.41,-2.41L43.44,0L38.62,0zM41.03,4.854c-0.766,0,-1.387,-0.621,-1.387,-1.387s0.621,-1.387,1.387,-1.387s1.387,0.621,1.387,1.387S41.796,4.854,41.03,4.854z"/>
   </g>
   <g xmlns="http://www.w3.org/2000/svg">
    <path xmlns="http://www.w3.org/2000/svg" fill="#9A916C" d="M45.819,0l0,4.75c0,1.33,1.078,2.41,2.41,2.41c1.33,0,2.41,-1.08,2.41,-2.41L50.639,0L45.819,0zM48.229,4.854c-0.766,0,-1.387,-0.621,-1.387,-1.387s0.621,-1.387,1.387,-1.387s1.387,0.621,1.387,1.387S48.995,4.854,48.229,4.854z"/>
   </g>
   <g xmlns="http://www.w3.org/2000/svg">
    <path xmlns="http://www.w3.org/2000/svg" fill="#9A916C" d="M53.02,0l0,4.75c0,1.33,1.078,2.41,2.41,2.41c1.33,0,2.41,-1.08,2.41,-2.41L57.84,0L53.02,0zM55.43,4.854c-0.766,0,-1.387,-0.621,-1.387,-1.387s0.621,-1.387,1.387,-1.387s1.387,0.621,1.387,1.387S56.195,4.854,55.43,4.854z"/>
   </g>
   <g xmlns="http://www.w3.org/2000/svg">
    <path xmlns="http://www.w3.org/2000/svg" fill="#9A916C" d="M60.22,0l0,4.75c0,1.33,1.078,2.41,2.41,2.41c1.33,0,2.41,-1.08,2.41,-2.41L65.04,0L60.22,0zM62.63,4.854c-0.766,0,-1.387,-0.621,-1.387,-1.387s0.621,-1.387,1.387,-1.387s1.387,0.621,1.387,1.387S63.396,4.854,62.63,4.854z"/>
   </g>
   <g xmlns="http://www.w3.org/2000/svg">
    <path xmlns="http://www.w3.org/2000/svg" fill="#9A916C" d="M67.42,0l0,4.75c0,1.33,1.078,2.41,2.41,2.41c1.33,0,2.41,-1.08,2.41,-2.41L72.24,0L67.42,0zM69.83,4.854c-0.766,0,-1.387,-0.621,-1.387,-1.387s0.621,-1.387,1.387,-1.387s1.387,0.621,1.387,1.387S70.596,4.854,69.83,4.854z"/>
   </g>
   <g xmlns="http://www.w3.org/2000/svg">
    <path xmlns="http://www.w3.org/2000/svg" fill="#9A916C" d="M74.619,0l0,4.75c0,1.33,1.078,2.41,2.41,2.41c1.33,0,2.41,-1.08,2.41,-2.41L79.439,0L74.619,0zM77.029,4.854c-0.766,0,-1.387,-0.621,-1.387,-1.387s0.621,-1.387,1.387,-1.387s1.387,0.621,1.387,1.387S77.795,4.854,77.029,4.854z"/>
   </g>
   <g xmlns="http://www.w3.org/2000/svg">
    <path xmlns="http://www.w3.org/2000/svg" fill="#9A916C" d="M81.819,0l0,4.75c0,1.33,1.078,2.41,2.41,2.41c1.33,0,2.41,-1.08,2.41,-2.41L86.639,0L81.819,0zM84.229,4.854c-0.766,0,-1.387,-0.621,-1.387,-1.387s0.621,-1.387,1.387,-1.387s1.387,0.621,1.387,1.387S84.995,4.854,84.229,4.854z"/>
   </g>
   <g xmlns="http://www.w3.org/2000/svg">
    <path xmlns="http://www.w3.org/2000/svg" fill="#9A916C" d="M89.02,0l0,4.75c0,1.33,1.078,2.41,2.41,2.41c1.33,0,2.41,-1.08,2.41,-2.41L93.84,0L89.02,0zM91.43,4.854c-0.766,0,-1.387,-0.621,-1.387,-1.387s0.621,-1.387,1.387,-1.387s1.387,0.621,1.387,1.387S92.195,4.854,91.43,4.854z"/>
   </g>
   <g xmlns="http://www.w3.org/2000/svg">
    <path xmlns="http://www.w3.org/2000/svg" fill="#9A916C" d="M96.22,0l0,4.75c0,1.33,1.078,2.41,2.41,2.41c1.33,0,2.41,-1.08,2.41,-2.41L101.04,0L96.22,0zM98.63,4.854c-0.766,0,-1.387,-0.621,-1.387,-1.387s0.621,-1.387,1.387,-1.387s1.387,0.621,1.387,1.387S99.396,4.854,98.63,4.854z"/>
   </g>
   <g xmlns="http://www.w3.org/2000/svg">
    <path xmlns="http://www.w3.org/2000/svg" fill="#9A916C" d="M103.419,0l0,4.75c0,1.33,1.078,2.41,2.41,2.41c1.33,0,2.41,-1.08,2.41,-2.41L108.239,0L103.419,0zM105.829,4.854c-0.766,0,-1.387,-0.621,-1.387,-1.387s0.621,-1.387,1.387,-1.387s1.387,0.621,1.387,1.387S106.595,4.854,105.829,4.854z"/>
   </g>
   <g xmlns="http://www.w3.org/2000/svg">
    <path xmlns="http://www.w3.org/2000/svg" fill="#9A916C" d="M110.619,0l0,4.75c0,1.33,1.078,2.41,2.41,2.41c1.33,0,2.411,-1.08,2.411,-2.41L115.44,0L110.619,0zM113.029,4.854c-0.766,0,-1.387,-0.621,-1.387,-1.387s0.621,-1.387,1.387,-1.387s1.387,0.621,1.387,1.387S113.795,4.854,113.029,4.854z"/>
   </g>
   <g xmlns="http://www.w3.org/2000/svg">
    <path xmlns="http://www.w3.org/2000/svg" fill="#9A916C" d="M117.819,0l0,4.75c0,1.33,1.078,2.41,2.41,2.41c1.33,0,2.41,-1.08,2.41,-2.41L122.639,0L117.819,0zM120.229,4.854c-0.766,0,-1.387,-0.621,-1.387,-1.387s0.621,-1.387,1.387,-1.387s1.387,0.621,1.387,1.387S120.995,4.854,120.229,4.854z"/>
   </g>
   <g xmlns="http://www.w3.org/2000/svg">
    <path xmlns="http://www.w3.org/2000/svg" fill="#9A916C" d="M125.02,0l0,4.75c0,1.33,1.078,2.41,2.41,2.41c1.33,0,2.41,-1.08,2.41,-2.41L129.84,0L125.02,0zM127.43,4.854c-0.766,0,-1.387,-0.621,-1.387,-1.387s0.621,-1.387,1.387,-1.387s1.387,0.621,1.387,1.387S128.196,4.854,127.43,4.854z"/>
   </g>
   <g xmlns="http://www.w3.org/2000/svg">
    <rect xmlns="http://www.w3.org/2000/svg" width="10.027" x="27.79" y="51.37" fill="#1A1A1A" height="16.522" fill-opacity="0.1"/>
    <rect xmlns="http://www.w3.org/2000/svg" width="10.027" x="38.534" y="51.37" fill="#1A1A1A" height="16.522" fill-opacity="0.1"/>
    <rect xmlns="http://www.w3.org/2000/svg" width="10.027" x="49.278" y="51.37" fill="#1A1A1A" height="16.522" fill-opacity="0.1"/>
    <rect xmlns="http://www.w3.org/2000/svg" width="10.028" x="60.022" y="51.37" fill="#1A1A1A" height="16.522" fill-opacity="0.1"/>
    <rect xmlns="http://www.w3.org/2000/svg" width="10.027" x="70.768" y="51.37" fill="#1A1A1A" height="16.522" fill-opacity="0.1"/>
    <rect xmlns="http://www.w3.org/2000/svg" width="10.027" x="81.512" y="51.37" fill="#1A1A1A" height="16.522" fill-opacity="0.1"/>
    <rect xmlns="http://www.w3.org/2000/svg" width="10.027" x="92.256" y="51.37" fill="#1A1A1A" height="16.522" fill-opacity="0.1"/>
    <rect xmlns="http://www.w3.org/2000/svg" width="10.027" x="103" y="51.37" fill="#1A1A1A" height="16.522" fill-opacity="0.1"/>
    <rect xmlns="http://www.w3.org/2000/svg" width="10.028" x="113.744" y="51.37" fill="#1A1A1A" height="16.522" fill-opacity="0.1"/>
    <rect xmlns="http://www.w3.org/2000/svg" width="10.027" x="124.489" y="51.37" fill="#1A1A1A" height="16.522" fill-opacity="0.1"/>
    <rect xmlns="http://www.w3.org/2000/svg" width="10.027" x="135.233" y="51.37" fill="#1A1A1A" height="16.522" fill-opacity="0.1"/>
    <rect xmlns="http://www.w3.org/2000/svg" width="10.027" x="145.977" y="51.37" fill="#1A1A1A" height="16.522" fill-opacity="0.1"/>
    <rect xmlns="http://www.w3.org/2000/svg" width="10.027" x="156.721" y="51.37" fill="#1A1A1A" height="16.522" fill-opacity="0.1"/>
    <rect xmlns="http://www.w3.org/2000/svg" width="10.027" x="167.465" y="51.37" fill="#1A1A1A" height="16.522" fill-opacity="0.1"/>
    <rect xmlns="http://www.w3.org/2000/svg" width="10.027" x="178.209" y="51.37" fill="#1A1A1A" height="16.522" fill-opacity="0.1"/>
    <rect xmlns="http://www.w3.org/2000/svg" width="10.027" x="188.954" y="51.37" fill="#1A1A1A" height="16.522" fill-opacity="0.1"/>
    <rect xmlns="http://www.w3.org/2000/svg" width="10.027" x="27.79" y="34.154" fill="#1A1A1A" height="16.522" fill-opacity="0.1"/>
    <rect xmlns="http://www.w3.org/2000/svg" width="10.027" x="38.534" y="34.154" fill="#1A1A1A" height="16.522" fill-opacity="0.1"/>
    <rect xmlns="http://www.w3.org/2000/svg" width="10.027" x="49.278" y="34.154" fill="#1A1A1A" height="16.522" fill-opacity="0.1"/>
    <rect xmlns="http://www.w3.org/2000/svg" width="10.028" x="60.022" y="34.154" fill="#1A1A1A" height="16.522" fill-opacity="0.1"/>
    <rect xmlns="http://www.w3.org/2000/svg" width="10.027" x="70.768" y="34.154" fill="#1A1A1A" height="16.522" fill-opacity="0.1"/>
    <rect xmlns="http://www.w3.org/2000/svg" width="10.027" x="81.512" y="34.154" fill="#1A1A1A" height="16.522" fill-opacity="0.1"/>
    <rect xmlns="http://www.w3.org/2000/svg" width="10.027" x="92.256" y="34.154" fill="#1A1A1A" height="16.522" fill-opacity="0.1"/>
    <rect xmlns="http://www.w3.org/2000/svg" width="10.027" x="103" y="34.154" fill="#1A1A1A" height="16.522" fill-opacity="0.1"/>
    <rect xmlns="http://www.w3.org/2000/svg" width="10.028" x="113.744" y="34.154" fill="#1A1A1A" height="16.522" fill-opacity="0.1"/>
    <rect xmlns="http://www.w3.org/2000/svg" width="10.027" x="124.489" y="34.154" fill="#1A1A1A" height="16.522" fill-opacity="0.1"/>
    <rect xmlns="http://www.w3.org/2000/svg" width="10.027" x="135.233" y="34.154" fill="#1A1A1A" height="16.522" fill-opacity="0.1"/>
    <rect xmlns="http://www.w3.org/2000/svg" width="10.027" x="145.977" y="34.154" fill="#1A1A1A" height="16.522" fill-opacity="0.1"/>
    <rect xmlns="http://www.w3.org/2000/svg" width="10.027" x="156.721" y="34.154" fill="#1A1A1A" height="16.522" fill-opacity="0.1"/>
    <rect xmlns="http://www.w3.org/2000/svg" width="10.027" x="167.465" y="34.154" fill="#1A1A1A" height="16.522" fill-opacity="0.1"/>
    <rect xmlns="http://www.w3.org/2000/svg" width="10.027" x="178.209" y="34.154" fill="#1A1A1A" height="16.522" fill-opacity="0.1"/>
    <rect xmlns="http://www.w3.org/2000/svg" width="10.027" x="188.954" y="34.154" fill="#1A1A1A" height="16.522" fill-opacity="0.1"/>
   </g>
   <g xmlns="http://www.w3.org/2000/svg">
    <path xmlns="http://www.w3.org/2000/svg" fill="#606060" d="M9.454,65.223L9.454,86.02l0.268,0L9.722,65.168C9.639,65.203,9.544,65.205,9.454,65.223z"/>
    <path xmlns="http://www.w3.org/2000/svg" fill="#606060" d="M9.722,36.881L9.722,16.026L9.454,16.026l0,20.8C9.544,36.844,9.639,36.846,9.722,36.881z"/>
   </g>
   <rect xmlns="http://www.w3.org/2000/svg" width="202.969" x="11.9" y="13.572" fill="#606060" height="0.267"/>
   <rect xmlns="http://www.w3.org/2000/svg" width="202.969" x="11.9" y="13.27" fill="#212121" height="0.304"/>
   <g xmlns="http://www.w3.org/2000/svg">
    <path xmlns="http://www.w3.org/2000/svg" fill="#212121" d="M9.208,36.776c0.087,0,0.164,0.034,0.247,0.05l0,-20.8L9.152,16.026l0,20.75L9.208,36.776z"/>
    <path xmlns="http://www.w3.org/2000/svg" fill="#212121" d="M9.208,65.272L9.152,65.272L9.152,86.02l0.303,0L9.455,65.222C9.372,65.238,9.295,65.272,9.208,65.272z"/>
   </g>
   <rect xmlns="http://www.w3.org/2000/svg" width="202.969" x="11.9" y="88.48" fill="#212121" height="0.303"/>
   <rect xmlns="http://www.w3.org/2000/svg" width="202.969" x="11.9" y="88.215" fill="#606060" height="0.267"/>
   <g xmlns="http://www.w3.org/2000/svg">
    <path xmlns="http://www.w3.org/2000/svg" fill="#212121" d="M217.563,65.272c-0.089,0,-0.166,-0.034,-0.25,-0.051L217.313,86.02l0.305,0L217.618,65.272L217.563,65.272z"/>
    <path xmlns="http://www.w3.org/2000/svg" fill="#212121" d="M217.563,36.776l0.055,0l0,-20.75l-0.305,0l0,20.801C217.397,36.811,217.474,36.776,217.563,36.776z"/>
   </g>
   <g xmlns="http://www.w3.org/2000/svg">
    <path xmlns="http://www.w3.org/2000/svg" fill="#606060" d="M217.049,65.168L217.049,86.02l0.266,0L217.315,65.222C217.226,65.205,217.131,65.203,217.049,65.168z"/>
    <path xmlns="http://www.w3.org/2000/svg" fill="#606060" d="M217.315,36.827l0,-20.8l-0.266,0l0,20.854C217.131,36.846,217.226,36.844,217.315,36.827z"/>
   </g>
  </g>
  <circle xmlns="http://www.w3.org/2000/svg" cx="19.43" cy="3.468" id="connector0pin" r="1.387"/>
  <circle xmlns="http://www.w3.org/2000/svg" cx="26.63" cy="3.468" id="connector1pin" r="1.387"/>
  <circle xmlns="http://www.w3.org/2000/svg" cx="33.83" cy="3.468" id="connector2pin" r="1.387"/>
  <circle xmlns="http://www.w3.org/2000/svg" cx="41.03" cy="3.468" id="connector3pin" r="1.387"/>
  <circle xmlns="http://www.w3.org/2000/svg" cx="48.229" cy="3.468" id="connector4pin" r="1.387"/>
  <circle xmlns="http://www.w3.org/2000/svg" cx="55.43" cy="3.468" id="connector5pin" r="1.387"/>
  <path xmlns="http://www.w3.org/2000/svg" id="connector6pin" d="M61.243,3.468c0,-0.766,0.621,-1.387,1.387,-1.387s1.387,0.621,1.387,1.387s-0.621,1.387,-1.387,1.387S61.243,4.233,61.243,3.468"/>
  <circle xmlns="http://www.w3.org/2000/svg" cx="69.83" cy="3.468" id="connector7pin" r="1.387"/>
  <circle xmlns="http://www.w3.org/2000/svg" cx="77.029" cy="3.468" id="connector8pin" r="1.387"/>
  <circle xmlns="http://www.w3.org/2000/svg" cx="84.229" cy="3.468" id="connector9pin" r="1.387"/>
  <circle xmlns="http://www.w3.org/2000/svg" cx="91.43" cy="3.468" id="connector10pin" r="1.387"/>
  <circle xmlns="http://www.w3.org/2000/svg" cx="98.63" cy="3.468" id="connector11pin" r="1.387"/>
  <circle xmlns="http://www.w3.org/2000/svg" cx="105.829" cy="3.468" id="connector12pin" r="1.387"/>
  <circle xmlns="http://www.w3.org/2000/svg" cx="113.029" cy="3.468" id="connector13pin" r="1.387"/>
  <circle xmlns="http://www.w3.org/2000/svg" cx="120.229" cy="3.468" id="connector14pin" r="1.387"/>
  <circle xmlns="http://www.w3.org/2000/svg" cx="127.43" cy="3.468" id="connector15pin" r="1.387"/>
 </g>
 <g xmlns="http://www.w3.org/2000/svg" id="Ebene_2"/>
</g>
</g></g><path stroke='#32bf4f' stroke-width='3' stroke-linecap='round' stroke-linejoin='round' fill='none' d='M3.71212,153.668L1.71212,154.668' />
<path stroke='#ffd500' stroke-width='3' stroke-linecap='round' stroke-linejoin='round' fill='none' d='M3.71212,162.152L1.71212,162.152' />
<g partID='72690'><g transform='translate(1.71212,129.095)' ><g xmlns="http://www.w3.org/2000/svg" id="breadboard">
 <rect xmlns="http://www.w3.org/2000/svg" width="1" x="19.321" y="12.5508" fill="#8C8C8C" height="0.999983" id="connector0pin"/>
 <rect xmlns="http://www.w3.org/2000/svg" width="1" x="19.221" y="43.2563" fill="#8C8C8C" height="0.999983" id="connector1pin"/>
 <g xmlns="http://www.w3.org/2000/svg">
  <rect xmlns="http://www.w3.org/2000/svg" width="12.975" x="107.157" y="25.2206" fill="#878787" height="4.56192"/>
  <rect xmlns="http://www.w3.org/2000/svg" width="0.451" x="107.157" y="25.2206" fill="#2D2D2D" height="4.56192"/>
  <rect xmlns="http://www.w3.org/2000/svg" width="12.975" opacity="0.35" x="107.157" y="29.2575" height="0.521991"/>
  <path xmlns="http://www.w3.org/2000/svg" opacity="0.35" fill="#FFFFFF" d="M119.835,26.4776c0,0.254996,-0.275,0.460992,-0.617,0.460992L106.78,26.9386c-0.34,0,-0.617,-0.187997,-0.617,-0.442993l0,-0.368994c0,-0.255996,0.277,-0.478992,0.617,-0.478992l12.438,0c0.342,0,0.617,0.206997,0.617,0.460992L119.835,26.4776z"/>
 </g>
 <g xmlns="http://www.w3.org/2000/svg">
  <path xmlns="http://www.w3.org/2000/svg" fill="#6D6D6D" stroke="#6D6D6D" stroke-width="1" d="M106.687,7.46488c0,-1.56097,-1.275,-2.83395,-2.834,-2.83395l-0.031,0c-1.561,0,-2.836,-0.929985,-2.836,-2.06197c0,-1.13198,-1.273,-2.06097,-2.834,-2.06097L28.507,0.507992l0,54.7001l69.645,0c1.561,0,2.834,-0.929985,2.834,-2.06197s1.275,-2.06097,2.836,-2.06097l0.031,0c1.559,0,2.834,-1.27498,2.834,-2.83595L106.687,7.46488L106.687,7.46488z"/>
 </g>
 <path xmlns="http://www.w3.org/2000/svg" opacity="0.35" d="M104.28,47.8142l-0.029,0c-1.551,0,-3.102,0.60599,-3.102,1.34598c0,0.737988,-0.982,1.34598,-2.531,1.34598L34.22,50.5062l0,4.45293l63.833,0c1.547,0,2.812,-0.925985,2.812,-2.05497c0,-1.12898,1.27,-2.05497,2.816,-2.05497l0.031,0c1.549,0,2.814,-1.27098,2.814,-2.82395l0,-2.06097C106.53,46.9822,105.829,47.8142,104.28,47.8142z"/>
 <rect xmlns="http://www.w3.org/2000/svg" width="0.94" x="23.905" y="26.3396" fill="#878787" height="3.04095"/>
 <rect xmlns="http://www.w3.org/2000/svg" width="10.242" x="27.642" y="25.0686" fill="#E5E500" height="5.58391"/>
 <g xmlns="http://www.w3.org/2000/svg">
  <rect xmlns="http://www.w3.org/2000/svg" width="2.795" x="24.847" y="18.8657" fill="#E5E500" height="17.9877"/>
  <polygon xmlns="http://www.w3.org/2000/svg" fill="#F3FF00" points="35.158,25.0686,35.158,0,27.642,0,27.642,25.9996,37.884,25.9996,37.884,29.7185,27.642,29.7185,27.642,55.7201,35.158,55.7201,35.158,30.6525,37.884,30.6525,37.884,25.0686"/>
 </g>
 <path xmlns="http://www.w3.org/2000/svg" opacity="0.5" fill="#686868" d="M101.724,28.0645c0,13.2698,-0.758,24.0206,-0.758,24.0206L100.966,4.04693C100.966,4.04693,101.724,14.8028,101.724,28.0645z"/>
 <path xmlns="http://www.w3.org/2000/svg" opacity="0.16" fill="#FFFFFF" d="M99.819,17.8387c0,1.41698,-1.425,2.56396,-3.181,2.56396L41.119,20.4027c-1.757,0,-3.181,-1.04898,-3.181,-2.46696L37.938,5.14392c0,-1.41798,1.424,-2.66796,3.181,-2.66796l55.519,0c1.756,0,3.181,1.14998,3.181,2.56796L99.819,17.8387z"/>
 <g xmlns="http://www.w3.org/2000/svg" opacity="0.16">
  <path xmlns="http://www.w3.org/2000/svg" fill="#FFFFFF" d="M105.595,18.1777c0,0.779987,-0.639,1.41698,-1.417,1.41698l-0.352,0c-0.777,0,-1.417,-0.637989,-1.417,-1.41698L102.409,7.68487c0,-0.779987,0.64,-1.41698,1.417,-1.41698l0.352,0c0.778,0,1.417,0.637989,1.417,1.41698L105.595,18.1777z"/>
 </g>
 <g xmlns="http://www.w3.org/2000/svg">
  <path xmlns="http://www.w3.org/2000/svg" d="M92.049,24.6596c-1.034,0,-1.876,-0.840986,-1.876,-1.87497l0,-8.42186c0,-1.03498,0.842,-1.87697,1.876,-1.87697s1.876,0.841986,1.876,1.87697l0,8.42186C93.925,23.8176,93.083,24.6596,92.049,24.6596L92.049,24.6596z"/>
  <path xmlns="http://www.w3.org/2000/svg" fill="#6B6B6B" d="M92.049,12.9858c0.759,0,1.376,0.61799,1.376,1.37698l0,8.42186c0,0.759987,-0.617,1.37498,-1.376,1.37498s-1.376,-0.61499,-1.376,-1.37498l0,-8.42186C90.673,13.6028,91.29,12.9858,92.049,12.9858M92.049,11.9858c-1.312,0,-2.376,1.06398,-2.376,2.37696l0,8.42186c0,1.31198,1.062,2.37496,2.376,2.37496c1.312,0,2.376,-1.06198,2.376,-2.37496l0,-8.42186C94.425,13.0498,93.361,11.9858,92.049,11.9858L92.049,11.9858z"/>
 </g>
 <g xmlns="http://www.w3.org/2000/svg">
  <path xmlns="http://www.w3.org/2000/svg" d="M92.049,43.2333c-1.034,0,-1.876,-0.841986,-1.876,-1.87597l0,-8.42086c0,-1.03498,0.842,-1.87697,1.876,-1.87697s1.876,0.841986,1.876,1.87697l0,8.42086C93.925,42.3913,93.083,43.2333,92.049,43.2333L92.049,43.2333z"/>
  <path xmlns="http://www.w3.org/2000/svg" fill="#6B6B6B" d="M92.049,31.5595c0.759,0,1.376,0.61799,1.376,1.37698l0,8.42086c0,0.758987,-0.617,1.37598,-1.376,1.37598s-1.376,-0.61699,-1.376,-1.37598l0,-8.42086C90.673,32.1775,91.29,31.5595,92.049,31.5595M92.049,30.5595c-1.312,0,-2.376,1.06398,-2.376,2.37696l0,8.42086c0,1.31198,1.062,2.37596,2.376,2.37596c1.312,0,2.376,-1.06198,2.376,-2.37596l0,-8.42086C94.425,31.6245,93.361,30.5595,92.049,30.5595L92.049,30.5595z"/>
 </g>
 <g xmlns="http://www.w3.org/2000/svg">
  <path xmlns="http://www.w3.org/2000/svg" d="M92.049,6.0859c-1.034,0,-1.876,-0.842986,-1.876,-1.87497L90.173,0.499992l3.752,0l0,3.71094C93.925,5.24491,93.083,6.0859,92.049,6.0859L92.049,6.0859z"/>
  <path xmlns="http://www.w3.org/2000/svg" fill="#6B6B6B" d="M93.425,0.999983l0,3.21095c0,0.757987,-0.617,1.37498,-1.376,1.37498s-1.376,-0.61699,-1.376,-1.37498L90.673,0.999983L93.425,0.999983M94.425,0l-4.752,0l0,4.21093c0,1.31198,1.062,2.37496,2.376,2.37496c1.312,0,2.376,-1.06298,2.376,-2.37496L94.425,0L94.425,0z"/>
 </g>
 <g xmlns="http://www.w3.org/2000/svg">
  <path xmlns="http://www.w3.org/2000/svg" d="M90.173,55.2201L90.173,51.5091c0,-1.03498,0.842,-1.87697,1.876,-1.87697s1.876,0.841986,1.876,1.87697l0,3.71094L90.173,55.2201z"/>
  <path xmlns="http://www.w3.org/2000/svg" fill="#6B6B6B" d="M92.049,50.1322c0.759,0,1.376,0.61799,1.376,1.37698l0,3.21095l-2.752,0L90.673,51.5091C90.673,50.7502,91.29,50.1322,92.049,50.1322M92.049,49.1322c-1.312,0,-2.376,1.06198,-2.376,2.37696l0,4.21093l4.752,0L94.425,51.5091C94.425,50.1972,93.361,49.1322,92.049,49.1322L92.049,49.1322z"/>
 </g>
 <g xmlns="http://www.w3.org/2000/svg" id="wires">
  <path xmlns="http://www.w3.org/2000/svg" fill="#ED8F66" d="M19.884,10.4378l-0.5,0.547991l0,2.99995l0.559,0.547991l7.699,0l0,-4.09693L19.884,10.4378L19.884,10.4378zM21.443,13.8358c-0.746,0,-1.35,-0.60399,-1.35,-1.34998c0,-0.745988,0.604,-1.34998,1.35,-1.34998s1.35,0.60399,1.35,1.34998C22.793,13.2318,22.189,13.8358,21.443,13.8358z"/>
  <path xmlns="http://www.w3.org/2000/svg" fill="#ED8F66" d="M19.884,41.2073l-0.5,0.548991l0,2.99995l0.559,0.547991l7.699,0l0,-4.09693L19.884,41.2073zM21.443,44.6063c-0.746,0,-1.35,-0.60399,-1.35,-1.34998s0.604,-1.34998,1.35,-1.34998s1.35,0.60399,1.35,1.34998S22.189,44.6063,21.443,44.6063z"/>
  <g xmlns="http://www.w3.org/2000/svg" fill="none" stroke="#32BF4F" id="connector0leg" stroke-linecap="round" y1="25.573" stroke-width="3" x1="0" y2="24.573" x2="2"/>
  <g xmlns="http://www.w3.org/2000/svg" fill="none" stroke="#FFD500" id="connector1leg" stroke-linecap="round" y1="33.057" stroke-width="3" x1="0" y2="33.057" x2="2"/>
  <path xmlns="http://www.w3.org/2000/svg" fill="none" stroke="#32BF4F" stroke-width="3" d="M2,24.5726C7.5,21.2266,9.094,12.5508,19.321,12.5508"/>
  <path xmlns="http://www.w3.org/2000/svg" fill="none" stroke="#FFD500" stroke-width="3" d="M2,33.0565C9.512,33.3964,13.557,43.2563,19.221,43.2563"/>
 </g>
</g>
</g></g><path stroke='#000000' stroke-width='2.99599' stroke-linecap='round' stroke-linejoin='round' fill='none' d='M167.312,189.624L167.312,197.868' />
<path stroke='#ff0000' stroke-width='2.99599' stroke-linecap='round' stroke-linejoin='round' fill='none' d='M174.543,189.624L174.543,197.868' />
<g partID='72720'><g transform='translate(131.673,121.966)' ><g xmlns="http://www.w3.org/2000/svg" id="breadboard">
 <rect xmlns="http://www.w3.org/2000/svg" width="0.998664" x="34.1483" y="65.9117" fill="none" height="0.998663" id="connector0pin"/>
 <rect xmlns="http://www.w3.org/2000/svg" width="0.998664" x="41.3367" y="65.9117" fill="none" height="0.998663" id="connector1pin"/>
 <g xmlns="http://www.w3.org/2000/svg" fill="none" stroke="#000000" id="connector0leg" stroke-linecap="round" y1="67.749" x1="35.687" y2="76.004" stroke-width="2.99599" x2="35.687"/>
 <g xmlns="http://www.w3.org/2000/svg" fill="none" stroke="#FF0000" id="connector1leg" stroke-linecap="round" y1="67.749" x1="42.928" y2="76.004" stroke-width="2.99599" x2="42.928"/>
 <path xmlns="http://www.w3.org/2000/svg" fill="none" stroke="#000000" stroke-width="2.99599" d="M35.6393,53.0609l0,14.5975"/>
 <path xmlns="http://www.w3.org/2000/svg" fill="none" stroke="#FF0000" stroke-width="2.99599" d="M42.8706,53.0609l0,14.5975"/>
 <g xmlns="http://www.w3.org/2000/svg">
  <path xmlns="http://www.w3.org/2000/svg" d="M3.67908,22.9872C1.90445,23.4087,0,25.7755,0,28.3301c0,2.55458,1.77662,4.86049,3.67908,5.34285c1.90345,0.479358,10.2902,2.59852,10.2902,2.59852L13.9693,20.3887L3.67908,22.9872zM5.48666,30.3823c-1.13448,0,-2.05325,-0.919768,-2.05325,-2.05325c0,-1.13448,0.918771,-2.05525,2.05325,-2.05525c1.13448,0,2.05325,0.919768,2.05325,2.05525C7.53991,29.4635,6.62114,30.3823,5.48666,30.3823z"/>
 </g>
 <g xmlns="http://www.w3.org/2000/svg">
  <path xmlns="http://www.w3.org/2000/svg" d="M74.8009,22.9852c-1.90245,-0.478359,-10.2902,-2.59852,-10.2902,-2.59852l0,15.8817l10.2902,-2.59852c1.77363,-0.422434,3.68008,-2.78827,3.68008,-5.34285C78.48,25.7725,76.7044,23.4666,74.8009,22.9852zM72.9933,30.3833c-1.13348,0,-2.05425,-0.919768,-2.05425,-2.05325c0,-1.13448,0.920768,-2.05425,2.05425,-2.05425c1.13448,0,2.05425,0.919768,2.05425,2.05425C75.0476,29.4635,74.1278,30.3833,72.9933,30.3833z"/>
 </g>
 <circle xmlns="http://www.w3.org/2000/svg" fill="#0D0D0D" cx="39.2395" cy="28.3291" r="28.3271"/>
 <g xmlns="http://www.w3.org/2000/svg">
  <circle xmlns="http://www.w3.org/2000/svg" cx="39.2395" cy="28.3301" r="28.3281"/>
 </g>
 <circle xmlns="http://www.w3.org/2000/svg" fill="#D7D8D9" cx="39.2405" cy="28.3301" r="4.80757"/>
 <path xmlns="http://www.w3.org/2000/svg" fill="none" stroke="#58595B" stroke-linejoin="round" stroke-linecap="round" stroke-width="1.85492" d="M12.5123,33.3244c-1.28628,-6.87679,0.0679091,-14.2429,4.35817,-20.4496C25.404,0.519305,42.3404,-2.57855,54.6968,5.96002"/>
 <g xmlns="http://www.w3.org/2000/svg">
  <g xmlns="http://www.w3.org/2000/svg">
   <path xmlns="http://www.w3.org/2000/svg" fill="none" stroke="#3F3F41" stroke-linejoin="round" stroke-linecap="round" stroke-width="0.208221" d="M54.0946,43.1832c8.21201,-8.212,8.21201,-21.4972,0,-29.7082c-8.21201,-8.212,-21.4972,-8.212,-29.7103,0c-8.21101,8.211,-8.21002,21.4962,0,29.7082C32.5974,51.3942,45.8846,51.3942,54.0946,43.1832z"/>
   <path xmlns="http://www.w3.org/2000/svg" fill="none" stroke="#3F3F41" stroke-linejoin="round" stroke-linecap="round" stroke-width="0.208221" d="M26.0402,41.5314c-7.29624,-7.29723,-7.29624,-19.1054,0,-26.4026c7.29624,-7.29723,19.1034,-7.29623,26.4017,0c7.29624,7.29823,7.29524,19.1034,-0.000998664,26.4016C45.1446,48.8266,33.3364,48.8286,26.0402,41.5314z"/>
   <path xmlns="http://www.w3.org/2000/svg" fill="none" stroke="#3F3F41" stroke-linejoin="round" stroke-linecap="round" stroke-width="0.208221" d="M50.795,39.8836c6.38446,-6.38245,6.37647,-16.7186,-0.00699065,-23.1001c-6.38346,-6.38345,-16.7186,-6.38944,-23.1011,-0.00699064c-6.38346,6.38245,-6.37447,16.7176,0.00798931,23.1021C34.0774,46.2571,44.4136,46.267,50.795,39.8836z"/>
   <path xmlns="http://www.w3.org/2000/svg" fill="none" stroke="#3F3F41" stroke-linejoin="round" stroke-linecap="round" stroke-width="0.208221" d="M29.3348,38.2378c-5.47667,-5.47667,-5.46269,-14.3398,0.00699065,-19.8085c5.46868,-5.46968,14.3318,-5.48266,19.8065,-0.00699064c5.47368,5.47467,5.46269,14.3378,-0.00599198,19.8065C43.6726,43.6995,34.8094,43.7125,29.3348,38.2378z"/>
   <path xmlns="http://www.w3.org/2000/svg" fill="none" stroke="#3F3F41" stroke-linejoin="round" stroke-linecap="round" stroke-width="0.208221" d="M47.4955,36.583c4.5559,-4.5559,4.5609,-11.945,0,-16.5079c-4.5609,-4.56189,-11.953,-4.5549,-16.5069,0c-4.55491,4.5559,-4.5629,11.945,0,16.5079C35.5494,41.1459,42.9405,41.1369,47.4955,36.583z"/>
   <path xmlns="http://www.w3.org/2000/svg" fill="none" stroke="#3F3F41" stroke-linejoin="round" stroke-linecap="round" stroke-width="0.208221" d="M32.6413,34.9292c-3.64812,-3.64712,-3.65611,-9.54422,0,-13.2003c3.65511,-3.65511,9.55122,-3.64811,13.2003,0.000998663c3.64812,3.64811,3.65511,9.54422,0,13.1993C42.1856,38.5863,36.2894,38.5773,32.6413,34.9292z"/>
  </g>
 </g>
 <path xmlns="http://www.w3.org/2000/svg" fill="none" stroke="#303032" stroke-linejoin="round" stroke-linecap="round" stroke-width="1.85492" d="M27.8877,53.037c13.6487,6.26661,29.7931,0.288614,36.0598,-13.3591c3.41743,-7.43904,3.19373,-15.6241,0.0709051,-22.5438"/>
</g>
</g></g><g partID='72750'><g transform='translate(273.718,169.919)' ><g transform='matrix(0,-1,1,0,0,0)'  ><g xmlns="http://www.w3.org/2000/svg" id="breadboard">
 <rect xmlns="http://www.w3.org/2000/svg" width="1.452" x="0.028" y="0.001" fill="none" height="1.507" id="connector5pin"/>
 <rect xmlns="http://www.w3.org/2000/svg" width="1.452" x="0.028" y="0.001" fill="none" height="0.272" id="connector5terminal"/>
 <rect xmlns="http://www.w3.org/2000/svg" width="1.454" x="7.038" y="0.001" fill="none" height="1.507" id="connector4pin"/>
 <rect xmlns="http://www.w3.org/2000/svg" width="1.453" x="7.038" y="0.001" fill="none" height="0.272" id="connector4terminal"/>
 <rect xmlns="http://www.w3.org/2000/svg" width="1.453" x="35.848" y="0.001" fill="none" height="1.506" id="connector3pin"/>
 <rect xmlns="http://www.w3.org/2000/svg" width="1.453" x="35.848" y="0.001" fill="none" height="0.272" id="connector3terminal"/>
 <rect xmlns="http://www.w3.org/2000/svg" width="1.453" x="0.028" y="21.532" fill="none" height="1.506" id="connector0pin"/>
 <rect xmlns="http://www.w3.org/2000/svg" width="1.453" x="0.028" y="22.766" fill="none" height="0.271" id="connector0terminal"/>
 <rect xmlns="http://www.w3.org/2000/svg" width="1.452" x="7.038" y="21.532" fill="none" height="1.506" id="connector1pin"/>
 <rect xmlns="http://www.w3.org/2000/svg" width="1.452" x="7.038" y="22.766" fill="none" height="0.271" id="connector1terminal"/>
 <rect xmlns="http://www.w3.org/2000/svg" width="1.453" x="35.848" y="21.532" fill="none" height="1.506" id="connector2pin"/>
 <rect xmlns="http://www.w3.org/2000/svg" width="1.453" x="35.848" y="22.766" fill="none" height="0.271" id="connector2terminal"/>
 <rect xmlns="http://www.w3.org/2000/svg" width="37.328" x="0.008" y="0.705" fill="#2D2D2D" height="21.627"/>
 <line xmlns="http://www.w3.org/2000/svg" fill="none" stroke="#606060" y1="2.897" stroke-width="0.6551" x1="36.578" y2="22.204" x2="36.578"/>
 <path xmlns="http://www.w3.org/2000/svg" fill="none" stroke="#606060" stroke-width="0.75" d="M0.755,2.898L0.755,6.7c0,0.64,0.523,1.164,1.164,1.164l3.255,0"/>
 <polygon xmlns="http://www.w3.org/2000/svg" fill="#B23820" points="4.616,8.945,4.969,8.17,2.01,8.17,2.365,8.945"/>
 <polygon xmlns="http://www.w3.org/2000/svg" fill="#B23820" points="4.956,13.408,5.15,12.579,2.248,13.163,2.749,13.852"/>
 <polygon xmlns="http://www.w3.org/2000/svg" fill="#B23820" points="2.318,11.721,2.123,12.55,5.025,11.966,4.524,11.278"/>
 <path xmlns="http://www.w3.org/2000/svg" fill="none" stroke="#606060" stroke-width="0.75" d="M0.755,22.284l0,-6.237c0,-0.641,0.523,-1.163,1.164,-1.163l3.255,0"/>
 <polygon xmlns="http://www.w3.org/2000/svg" fill="#B23820" points="4.616,13.802,4.969,14.577,2.01,14.577,2.365,13.802"/>
 <rect xmlns="http://www.w3.org/2000/svg" width="1.51" y="21.528" fill="#8C8C8C" height="1.51"/>
 <rect xmlns="http://www.w3.org/2000/svg" width="1.51" x="35.828" y="21.528" fill="#8C8C8C" height="1.51"/>
 <line xmlns="http://www.w3.org/2000/svg" fill="none" stroke="#606060" y1="11.275" stroke-width="0.75" x1="12.854" y2="11.275" x2="36.535"/>
 <line xmlns="http://www.w3.org/2000/svg" fill="none" stroke="#494949" y1="11.279" stroke-width="0.75" x1="13.353" y2="11.279" x2="23.85"/>
 <path xmlns="http://www.w3.org/2000/svg" fill="none" stroke="#752119" stroke-linecap="round" stroke-width="0.75" d="M22.521,14.292c0.921,0.607,-6.856,0.787,-7.891,0.683"/>
 <path xmlns="http://www.w3.org/2000/svg" fill="none" stroke="#752119" stroke-linecap="round" stroke-width="0.75" d="M22.521,15.135c0.933,0.611,-6.871,0.78,-7.891,0.682"/>
 <path xmlns="http://www.w3.org/2000/svg" fill="none" stroke="#752119" stroke-linecap="round" stroke-width="0.75" d="M22.521,15.979c0.922,0.602,-6.86,0.782,-7.891,0.678"/>
 <path xmlns="http://www.w3.org/2000/svg" fill="none" stroke="#752119" stroke-linecap="round" stroke-width="0.75" d="M22.521,16.821c0.521,0.34,-2.353,0.962,-7.891,0.962"/>
 <path xmlns="http://www.w3.org/2000/svg" fill="none" stroke="#752119" stroke-linecap="round" stroke-width="0.75" d="M22.521,10.923c0.921,0.606,-6.854,0.785,-7.891,0.682"/>
 <path xmlns="http://www.w3.org/2000/svg" fill="none" stroke="#752119" stroke-linecap="round" stroke-width="0.75" d="M22.521,11.766c0.93,0.608,-6.868,0.778,-7.891,0.68"/>
 <path xmlns="http://www.w3.org/2000/svg" fill="none" stroke="#752119" stroke-linecap="round" stroke-width="0.75" d="M22.521,12.608c0.925,0.603,-6.86,0.785,-7.891,0.681"/>
 <path xmlns="http://www.w3.org/2000/svg" fill="none" stroke="#752119" stroke-linecap="round" stroke-width="0.75" d="M22.521,13.45c0.916,0.601,-6.845,0.789,-7.891,0.681"/>
 <path xmlns="http://www.w3.org/2000/svg" fill="none" stroke="#752119" stroke-linecap="round" stroke-width="0.75" d="M22.521,7.553c0.911,0.603,-6.845,0.789,-7.891,0.682"/>
 <path xmlns="http://www.w3.org/2000/svg" fill="none" stroke="#752119" stroke-linecap="round" stroke-width="0.75" d="M22.521,8.396C23.442,9,15.667,9.182,14.63,9.079"/>
 <path xmlns="http://www.w3.org/2000/svg" fill="none" stroke="#752119" stroke-linecap="round" stroke-width="0.75" d="M22.521,9.239c0.929,0.606,-6.867,0.782,-7.891,0.679"/>
 <path xmlns="http://www.w3.org/2000/svg" fill="none" stroke="#752119" stroke-linecap="round" stroke-width="0.75" d="M22.521,10.081c0.931,0.611,-6.877,0.782,-7.891,0.682"/>
 <path xmlns="http://www.w3.org/2000/svg" fill="none" stroke="#752119" stroke-linecap="round" stroke-width="0.75" d="M22.379,5.87c0.924,0.604,-6.72,0.781,-7.75,0.679"/>
 <path xmlns="http://www.w3.org/2000/svg" fill="none" stroke="#752119" stroke-linecap="round" stroke-width="0.75" d="M22.521,6.711c0.933,0.61,-6.871,0.778,-7.891,0.679"/>
 <path xmlns="http://www.w3.org/2000/svg" fill="none" stroke="#B23820" stroke-linecap="round" stroke-width="0.75" d="M14.63,6.572c2.514,-0.527,5.224,-0.594,7.967,0.25"/>
 <path xmlns="http://www.w3.org/2000/svg" fill="none" stroke="#B23820" stroke-linecap="round" stroke-width="0.75" d="M14.63,7.411c2.514,-0.527,5.224,-0.594,7.967,0.25"/>
 <path xmlns="http://www.w3.org/2000/svg" fill="none" stroke="#B23820" stroke-linecap="round" stroke-width="0.75" d="M14.63,8.25c2.514,-0.528,5.224,-0.594,7.967,0.25"/>
 <path xmlns="http://www.w3.org/2000/svg" fill="none" stroke="#B23820" stroke-linecap="round" stroke-width="0.75" d="M14.63,9.088c2.514,-0.528,5.224,-0.595,7.967,0.25"/>
 <path xmlns="http://www.w3.org/2000/svg" fill="none" stroke="#B23820" stroke-linecap="round" stroke-width="0.75" d="M14.63,9.928c2.514,-0.528,5.224,-0.595,7.967,0.249"/>
 <path xmlns="http://www.w3.org/2000/svg" fill="none" stroke="#B23820" stroke-linecap="round" stroke-width="0.75" d="M14.63,10.768c2.514,-0.528,5.224,-0.595,7.967,0.249"/>
 <path xmlns="http://www.w3.org/2000/svg" fill="none" stroke="#B23820" stroke-linecap="round" stroke-width="0.75" d="M14.63,11.607c2.514,-0.528,5.224,-0.595,7.967,0.249"/>
 <path xmlns="http://www.w3.org/2000/svg" fill="none" stroke="#B23820" stroke-linecap="round" stroke-width="0.75" d="M14.63,12.447c2.514,-0.528,5.224,-0.595,7.967,0.249"/>
 <path xmlns="http://www.w3.org/2000/svg" fill="none" stroke="#B23820" stroke-linecap="round" stroke-width="0.75" d="M14.63,13.285c2.514,-0.528,5.224,-0.595,7.967,0.249"/>
 <path xmlns="http://www.w3.org/2000/svg" fill="none" stroke="#B23820" stroke-linecap="round" stroke-width="0.75" d="M14.63,14.124c2.514,-0.527,5.224,-0.594,7.967,0.25"/>
 <path xmlns="http://www.w3.org/2000/svg" fill="none" stroke="#B23820" stroke-linecap="round" stroke-width="0.75" d="M14.63,14.963c2.514,-0.527,5.224,-0.595,7.967,0.249"/>
 <path xmlns="http://www.w3.org/2000/svg" fill="none" stroke="#B23820" stroke-linecap="round" stroke-width="0.75" d="M14.63,15.803c2.514,-0.527,5.224,-0.595,7.967,0.249"/>
 <path xmlns="http://www.w3.org/2000/svg" fill="none" stroke="#B23820" stroke-linecap="round" stroke-width="0.75" d="M14.63,16.655c2.514,-0.527,5.224,-0.595,7.967,0.249"/>
 <path xmlns="http://www.w3.org/2000/svg" fill="none" stroke="#B23820" stroke-linecap="round" stroke-width="0.75" d="M14.63,5.315c3.955,0,5.637,-0.087,7.923,0.622"/>
 <path xmlns="http://www.w3.org/2000/svg" fill="none" stroke="#752119" stroke-linecap="round" stroke-width="0.7311" d="M7.812,22.284l0,-3.312c0,-0.641,0.523,-1.164,1.164,-1.164l5.653,0"/>
 <line xmlns="http://www.w3.org/2000/svg" fill="none" stroke="#606060" stroke-linecap="round" y1="1.169" stroke-width="0.6551" x1="36.579" y2="2.898" x2="36.578"/>
 <line xmlns="http://www.w3.org/2000/svg" fill="none" stroke="#606060" stroke-linecap="round" y1="1.169" stroke-width="0.75" x1="0.756" y2="2.898" x2="0.755"/>
 <path xmlns="http://www.w3.org/2000/svg" fill="none" stroke="#B23820" stroke-linecap="round" stroke-width="0.75" d="M7.812,1.169l0,2.982c0,0.64,0.523,1.164,1.164,1.164l5.653,0"/>
 <line xmlns="http://www.w3.org/2000/svg" fill="none" stroke="#7C7C7C" y1="12.887" stroke-width="0.75" x1="2.08" y2="11.275" x2="10.786"/>
 <path xmlns="http://www.w3.org/2000/svg" fill="#333333" d="M11.672,12.452c-0.649,0,-1.178,-0.529,-1.178,-1.178c0,-0.649,0.528,-1.177,1.178,-1.177s1.178,0.528,1.178,1.177C12.851,11.923,12.322,12.452,11.672,12.452L11.672,12.452z"/>
 <path xmlns="http://www.w3.org/2000/svg" fill="#606060" d="M11.672,10.389c0.489,0,0.887,0.396,0.887,0.886c0,0.488,-0.398,0.886,-0.887,0.886s-0.887,-0.396,-0.887,-0.886S11.184,10.389,11.672,10.389M11.672,9.807c-0.811,0,-1.469,0.657,-1.469,1.468c0,0.811,0.657,1.468,1.469,1.468s1.469,-0.657,1.469,-1.468C13.142,10.464,12.484,9.807,11.672,9.807L11.672,9.807z"/>
 <rect xmlns="http://www.w3.org/2000/svg" width="1.51" x="6.999" y="21.528" fill="#8C8C8C" height="1.51"/>
 <rect xmlns="http://www.w3.org/2000/svg" width="1.51" fill="#8C8C8C" height="1.51"/>
 <rect xmlns="http://www.w3.org/2000/svg" width="1.51" x="35.828" fill="#8C8C8C" height="1.51"/>
 <rect xmlns="http://www.w3.org/2000/svg" width="1.51" x="6.999" fill="#8C8C8C" height="1.51"/>
</g>
</g></g></g></svg>